<svg xmlns="http://www.w3.org/2000/svg"
 xmlns:xlink="http://www.w3.org/1999/xlink"
 width="20px" height="18px"  viewBox="0 0 20 18">
<path fill-rule="evenodd"  fill="#ffffff"
 d="M9.999878,16.999878 C9.849365,16.999878 9.705566,16.936768 9.603149,16.826172 C9.603149,16.826172 3.208496,9.910522 3.208496,9.910522 C3.206787,9.908569 3.2050781,9.906738 3.2036133,9.904785 C2.427246,9.042725 1.9998779,7.8997803 1.9998779,6.6870117 C1.9998779,5.474121 2.427246,4.3311768 3.2036133,3.468872 C3.2036133,3.468872 3.3007812,3.3608398 3.3007812,3.3608398 C4.0908203,2.4832764 5.145874,1.9997559 6.27124,1.9997559 C7.3967285,1.9997559 8.451782,2.4832764 9.241943,3.3608398 C9.241943,3.3608398 9.999878,4.203125 9.999878,4.203125 C9.999878,4.203125 10.757935,3.3608398 10.757935,3.3608398 C11.547974,2.4832764 12.603027,1.9997559 13.728516,1.9997559 C14.854004,1.9997559 15.908936,2.4832764 16.699097,3.3613281 C16.699097,3.3613281 16.796143,3.468872 16.796143,3.468872 C17.57251,4.3311768 18.0,5.474121 18.0,6.6870117 C18.0,7.8997803 17.57251,9.042725 16.796265,9.905273 C16.794678,9.906738 16.79309,9.908569 16.791382,9.910522 C16.791382,9.910522 10.3967285,16.826172 10.3967285,16.826172 C10.294312,16.936768 10.150513,16.999878 9.999878,16.999878 ZM4.0046387,9.174438 C4.0046387,9.174438 9.999878,15.658203 9.999878,15.658203 C9.999878,15.658203 15.995239,9.174438 15.995239,9.174438 C17.22876,7.8010254 17.227905,5.569092 15.99292,4.1968994 C15.99292,4.1968994 15.895874,4.0893555 15.895874,4.0893555 C15.313477,3.4421387 14.543823,3.0860596 13.728516,3.0860596 C12.913208,3.0860596 12.143555,3.4421387 11.561279,4.0889893 C11.561279,4.0889893 10.401611,5.3774414 10.401611,5.3774414 C10.29895,5.491211 10.153076,5.5562744 9.999878,5.5562744 C9.846924,5.5562744 9.700928,5.491211 9.598267,5.3774414 C9.598267,5.3774414 8.438721,4.0889893 8.438721,4.0889893 C7.8563232,3.4421387 7.086792,3.0860596 6.2713623,3.0860596 C5.4560547,3.0860596 4.6864014,3.4421387 4.104126,4.0889893 C4.104126,4.0889893 4.006958,4.1968994 4.006958,4.1968994 C2.7718506,5.569092 2.7711182,7.8010254 4.0046387,9.174438 Z"/>
</svg>